<svg id="Group_2735" data-name="Group 2735" xmlns="http://www.w3.org/2000/svg" width="15.187" height="19.077" viewBox="0 0 15.187 19.077">
  <path id="Path_1881" data-name="Path 1881" d="M11.549,68.3H1.679A1.68,1.68,0,0,0,0,69.979V84.142a1.68,1.68,0,0,0,1.679,1.679h9.87a1.68,1.68,0,0,0,1.679-1.679V69.979A1.691,1.691,0,0,0,11.549,68.3Zm.5,15.837a.508.508,0,0,1-.505.505H1.674a.508.508,0,0,1-.505-.505V69.979a.508.508,0,0,1,.505-.505h9.87a.508.508,0,0,1,.505.505V84.137Zm0,0" transform="translate(0 -66.745)" fill="#424e5a"/>
  <path id="Path_1882" data-name="Path 1882" d="M80.949,0h-9.87A1.68,1.68,0,0,0,69.4,1.679a.587.587,0,1,0,1.174,0,.508.508,0,0,1,.505-.505h9.87a.508.508,0,0,1,.505.505V15.842a.508.508,0,0,1-.505.505.587.587,0,1,0,0,1.174,1.68,1.68,0,0,0,1.679-1.679V1.679A1.677,1.677,0,0,0,80.949,0Zm0,0" transform="translate(-67.442)" fill="#424e5a"/>
</svg>
