<svg xmlns="http://www.w3.org/2000/svg" width="40.004" height="36.357" viewBox="0 0 40.004 36.357">
  <g id="Group_2850" data-name="Group 2850" transform="translate(-1191 -160)">
    <g id="Rectangle_111" data-name="Rectangle 111" transform="translate(1205.373 160)" fill="none" stroke="#545f69" stroke-width="2">
      <rect width="11.259" height="11.259" rx="2" stroke="none"/>
      <rect x="1" y="1" width="9.259" height="9.259" rx="1" fill="none"/>
    </g>
    <g id="Group_2849" data-name="Group 2849" transform="translate(1191 160)">
      <g id="Rectangle_110" data-name="Rectangle 110" fill="none" stroke="#545f69" stroke-width="2">
        <rect width="11.259" height="11.259" rx="2" stroke="none"/>
        <rect x="1" y="1" width="9.259" height="9.259" rx="1" fill="none"/>
      </g>
      <g id="Rectangle_115" data-name="Rectangle 115" transform="translate(0 12.549)" fill="none" stroke="#545f69" stroke-width="2">
        <rect width="11.259" height="11.259" rx="2" stroke="none"/>
        <rect x="1" y="1" width="9.259" height="9.259" rx="1" fill="none"/>
      </g>
      <g id="Rectangle_118" data-name="Rectangle 118" transform="translate(0 25.098)" fill="none" stroke="#545f69" stroke-width="2">
        <rect width="11.259" height="11.259" rx="2" stroke="none"/>
        <rect x="1" y="1" width="9.259" height="9.259" rx="1" fill="none"/>
      </g>
      <g id="Rectangle_114" data-name="Rectangle 114" transform="translate(14.373 12.549)" fill="none" stroke="#545f69" stroke-width="2">
        <rect width="11.259" height="11.259" rx="2" stroke="none"/>
        <rect x="1" y="1" width="9.259" height="9.259" rx="1" fill="none"/>
      </g>
      <g id="Rectangle_117" data-name="Rectangle 117" transform="translate(14.373 25.098)" fill="none" stroke="#545f69" stroke-width="2">
        <rect width="11.259" height="11.259" rx="2" stroke="none"/>
        <rect x="1" y="1" width="9.259" height="9.259" rx="1" fill="none"/>
      </g>
      <g id="Rectangle_112" data-name="Rectangle 112" transform="translate(28.745)" fill="none" stroke="#545f69" stroke-width="2">
        <rect width="11.259" height="11.259" rx="2" stroke="none"/>
        <rect x="1" y="1" width="9.259" height="9.259" rx="1" fill="none"/>
      </g>
      <g id="Rectangle_113" data-name="Rectangle 113" transform="translate(28.745 12.549)" fill="none" stroke="#545f69" stroke-width="2">
        <rect width="11.259" height="11.259" rx="2" stroke="none"/>
        <rect x="1" y="1" width="9.259" height="9.259" rx="1" fill="none"/>
      </g>
      <g id="Rectangle_116" data-name="Rectangle 116" transform="translate(28.745 25.098)" fill="none" stroke="#545f69" stroke-width="2">
        <rect width="11.259" height="11.259" rx="2" stroke="none"/>
        <rect x="1" y="1" width="9.259" height="9.259" rx="1" fill="none"/>
      </g>
    </g>
  </g>
</svg>
