<svg id="Group_2815" data-name="Group 2815" xmlns="http://www.w3.org/2000/svg" width="24" height="23.993" viewBox="0 0 24 23.993">
  <path id="Path_1962" data-name="Path 1962" d="M22.112,2.258H18.818V.753a.753.753,0,1,0-1.505,0V2.258H12.8V.753a.753.753,0,0,0-1.505,0V2.258H6.775V.753A.809.809,0,0,0,6.022,0a.809.809,0,0,0-.753.753V2.258H1.976A2.053,2.053,0,0,0,0,4.234V22.018a1.987,1.987,0,0,0,1.976,1.976H22.018a1.987,1.987,0,0,0,1.976-1.976V4.234a1.908,1.908,0,0,0-1.882-1.976Zm.47,19.853a.444.444,0,0,1-.47.47H1.976a.444.444,0,0,1-.47-.47V4.234a.444.444,0,0,1,.47-.47H5.269V5.269a.809.809,0,0,0,.753.753.809.809,0,0,0,.753-.753V3.764h4.516V5.269a.753.753,0,1,0,1.505,0V3.764h4.516V5.269a.753.753,0,1,0,1.505,0V3.764h3.293a.444.444,0,0,1,.47.47Zm0,0" fill="#545f69"/>
  <rect id="Rectangle_87" data-name="Rectangle 87" width="3.237" height="2.428" transform="translate(5.212 8.962)" fill="#545f69"/>
  <rect id="Rectangle_88" data-name="Rectangle 88" width="3.237" height="2.428" transform="translate(5.212 12.697)" fill="#545f69"/>
  <rect id="Rectangle_89" data-name="Rectangle 89" width="3.237" height="2.428" transform="translate(5.212 16.431)" fill="#545f69"/>
  <rect id="Rectangle_90" data-name="Rectangle 90" width="3.237" height="2.428" transform="translate(10.425 16.431)" fill="#545f69"/>
  <rect id="Rectangle_91" data-name="Rectangle 91" width="3.237" height="2.428" transform="translate(10.425 12.697)" fill="#545f69"/>
  <rect id="Rectangle_92" data-name="Rectangle 92" width="3.237" height="2.428" transform="translate(10.425 8.962)" fill="#545f69"/>
  <rect id="Rectangle_93" data-name="Rectangle 93" width="3.237" height="2.428" transform="translate(15.637 16.431)" fill="#545f69"/>
  <rect id="Rectangle_94" data-name="Rectangle 94" width="3.237" height="2.428" transform="translate(15.637 12.697)" fill="#545f69"/>
  <rect id="Rectangle_95" data-name="Rectangle 95" width="3.237" height="2.428" transform="translate(15.637 8.962)" fill="#545f69"/>
</svg>
