<svg id="Group_2830" data-name="Group 2830" xmlns="http://www.w3.org/2000/svg" xmlns:xlink="http://www.w3.org/1999/xlink" width="21" height="16" viewBox="0 0 21 16">
  <defs>
    <clipPath id="clip-path">
      <rect id="Rectangle_99" data-name="Rectangle 99" width="21" height="16" fill="#65798c"/>
    </clipPath>
  </defs>
  <g id="Group_2829" data-name="Group 2829">
    <g id="Group_2828" data-name="Group 2828" clip-path="url(#clip-path)">
      <path id="Path_1971" data-name="Path 1971" d="M.2,8.8A1.421,1.421,0,0,1,0,8.2a1.421,1.421,0,0,1,.2-.6L1.3,6.5a.785.785,0,0,1,1.1,0l.1.1L7,11.4a.375.375,0,0,0,.6,0L18.2.2h.1a.785.785,0,0,1,1.1,0l1.1,1.1a.785.785,0,0,1,0,1.1L7.8,15.8a1.421,1.421,0,0,1-.6.2,1.421,1.421,0,0,1-.6-.2L.4,9Zm0,0" fill="#65798c"/>
    </g>
  </g>
</svg>
