<svg xmlns="http://www.w3.org/2000/svg" xmlns:xlink="http://www.w3.org/1999/xlink" width="15.289" height="15.251" viewBox="0 0 15.289 15.251">
  <defs>
    <clipPath id="clip-path">
      <rect id="Rectangle_47" data-name="Rectangle 47" width="15.289" height="15.251" stroke="#000" stroke-width="0.3"/>
    </clipPath>
  </defs>
  <g id="Group_2718" data-name="Group 2718" transform="translate(0 0)">
    <g id="Group_2717" data-name="Group 2717">
      <g id="Group_2715" data-name="Group 2715" clip-path="url(#clip-path)">
        <path id="Path_1879" data-name="Path 1879" d="M14.111,47.368a.382.382,0,0,0-.381.381v3.382a1.147,1.147,0,0,1-1.144,1.144H1.9A1.147,1.147,0,0,1,.759,51.131V41.206A1.147,1.147,0,0,1,1.9,40.063H5.284a.381.381,0,0,0,0-.763H1.9A1.911,1.911,0,0,0,0,41.206v9.924a1.9,1.9,0,0,0,1.9,1.9H12.586a1.9,1.9,0,0,0,1.9-1.9V47.749a.377.377,0,0,0-.377-.381Zm0,0" transform="translate(0 -37.802)" stroke="#000" stroke-width="0.3"/>
      </g>
      <g id="Group_2716" data-name="Group 2716" clip-path="url(#clip-path)">
        <path id="Path_1880" data-name="Path 1880" d="M118.24,1a1.712,1.712,0,0,0-2.425,0L109.024,7.8a.393.393,0,0,0-.1.168l-.892,3.226a.37.37,0,0,0,.1.37.39.39,0,0,0,.37.1l3.226-.892a.359.359,0,0,0,.168-.1l6.794-6.794a1.719,1.719,0,0,0,0-2.425Zm-8.384,7.038,5.559-5.559,1.792,1.792-5.559,5.563Zm-.358.721,1.434,1.434-1.983.549Zm8.651-5.429-.4.4-1.792-1.792.4-.4a.955.955,0,0,1,1.346,0l.446.446a.948.948,0,0,1,0,1.346Zm0,0" transform="translate(-103.9 -0.481)" stroke="#000" stroke-width="0.3"/>
      </g>
    </g>
  </g>
</svg>
