<svg xmlns="http://www.w3.org/2000/svg" width="33.368" height="27.806" viewBox="0 0 33.368 27.806">
  <path id="Path_1985" data-name="Path 1985" d="M31.018,0H2.35A2.348,2.348,0,0,0,0,2.336V20.1A2.348,2.348,0,0,0,2.35,22.44H14.591v4.254H7.466a.556.556,0,1,0,0,1.112H25.895a.556.556,0,0,0,0-1.112H18.776V22.433H31.018a2.348,2.348,0,0,0,2.35-2.336V2.336A2.348,2.348,0,0,0,31.018,0ZM2.35,1.112H31.018a1.228,1.228,0,0,1,1.237,1.223V17.483H1.112V2.336A1.228,1.228,0,0,1,2.35,1.112ZM17.664,26.694H15.7V22.433h1.96Zm13.354-5.374H2.35A1.228,1.228,0,0,1,1.112,20.1V18.589H32.255V20.1A1.233,1.233,0,0,1,31.018,21.321Z" fill="#636b74"/>
</svg>
