<svg id="Group_2886" data-name="Group 2886" xmlns="http://www.w3.org/2000/svg" width="26.07" height="26.07" viewBox="0 0 26.07 26.07">
  <path id="Path_1883" data-name="Path 1883" d="M22.251,3.819a13.03,13.03,0,0,0-18.432,0,13.03,13.03,0,0,0,0,18.432,13.03,13.03,0,0,0,18.432,0,13.03,13.03,0,0,0,0-18.432Zm-9.216,20.7A11.482,11.482,0,1,1,24.517,13.035,11.491,11.491,0,0,1,13.035,24.517Z" transform="translate(0 0)" fill="#555c64"/>
  <path id="Path_1884" data-name="Path 1884" d="M107.024,171.7a1.706,1.706,0,0,1,2.414,0,.776.776,0,0,0,1.1-1.095,3.258,3.258,0,0,0-4.608,0,.774.774,0,0,0,1.095,1.095Z" transform="translate(-100.318 -161.012)" fill="#555c64"/>
  <path id="Path_1885" data-name="Path 1885" d="M308.224,171.7a1.706,1.706,0,0,1,2.414,0,.776.776,0,0,0,1.1-1.095,3.258,3.258,0,0,0-4.608,0,.774.774,0,1,0,1.095,1.095Z" transform="translate(-291.273 -161.012)" fill="#555c64"/>
  <path id="Path_1886" data-name="Path 1886" d="M120.232,267.2H106.474a.774.774,0,0,0-.774.774,7.653,7.653,0,0,0,15.306,0A.774.774,0,0,0,120.232,267.2Zm-6.879,6.879a6.113,6.113,0,0,1-6.054-5.326h12.108A6.113,6.113,0,0,1,113.353,274.079Z" transform="translate(-100.318 -253.595)" fill="#555c64"/>
</svg>
