<svg id="Group_2754" data-name="Group 2754" xmlns="http://www.w3.org/2000/svg" width="24.754" height="14.222" viewBox="0 0 24.754 14.222">
  <path id="Path_1896" data-name="Path 1896" d="M21.525,0H3.229A3.135,3.135,0,0,0,0,3.282V10.94a3.135,3.135,0,0,0,3.229,3.282h18.3a3.135,3.135,0,0,0,3.229-3.282V3.282A3.135,3.135,0,0,0,21.525,0ZM9.686,4.376H6.458A1,1,0,0,0,5.381,5.47V8.752A1,1,0,0,0,6.458,9.846H8.61V7.658H6.458V6.564H9.686V10.94H6.458A2.143,2.143,0,0,1,4.305,8.752V5.47A2.143,2.143,0,0,1,6.458,3.282H9.686Zm4.305,0H12.915v5.47h1.076V10.94H10.763V9.846h1.076V4.376H10.763V3.282h3.229Zm6.458,0H16.144V6.564h3.229V7.658H16.144V10.94H15.068V3.282h5.381Zm0,0" fill="#555c64"/>
</svg>
