<svg xmlns="http://www.w3.org/2000/svg" width="25" height="22.295" viewBox="0 0 25 22.295">
  <g id="Group_2825" data-name="Group 2825" transform="translate(-0.029 0.001)">
    <g id="Group_2824" data-name="Group 2824" transform="translate(0.029 -0.001)">
      <path id="Path_1970" data-name="Path 1970" d="M.893,13.277H2.928v8.144a.874.874,0,0,0,.873.873H9.763a.874.874,0,0,0,.873-.873V15.459h3.639v5.962a.874.874,0,0,0,.873.873H20.82a.874.874,0,0,0,.873-.873V13.277h2.471a.87.87,0,0,0,.616-1.482L13.4.255A.868.868,0,0,0,12.182.243L.3,11.775a.879.879,0,0,0-.205.963.849.849,0,0,0,.8.539ZM12.76,2.1l9.312,9.427H20.82a.874.874,0,0,0-.873.873v8.144H16.02V14.586a.874.874,0,0,0-.873-.873H9.763a.874.874,0,0,0-.873.873v5.962H4.673V12.4a.874.874,0,0,0-.873-.873H3.043Zm0,0" transform="translate(-0.029 0.001)" fill="#545f69"/>
    </g>
  </g>
</svg>
