<svg xmlns="http://www.w3.org/2000/svg" width="19.829" height="19.829" viewBox="0 0 19.829 19.829">
  <path id="Path_1986" data-name="Path 1986" d="M17.583.257V-8.109H15.84A5.555,5.555,0,0,1,16.1-6.418a5.72,5.72,0,0,1-.826,3,6.023,6.023,0,0,1-2.246,2.175,6.2,6.2,0,0,1-3.1.8A6.031,6.031,0,0,1,5.577-2.19,5.668,5.668,0,0,1,3.77-6.418a5.555,5.555,0,0,1,.258-1.691H2.208V.257a.762.762,0,0,0,.226.562.762.762,0,0,0,.562.226H16.8A.769.769,0,0,0,17.35.818.752.752,0,0,0,17.583.257Zm-4.835-4.15a3.659,3.659,0,0,0,1.168-2.73,3.659,3.659,0,0,0-1.168-2.73,3.911,3.911,0,0,0-2.821-1.13A3.9,3.9,0,0,0,7.12-9.355a3.659,3.659,0,0,0-1.168,2.73A3.659,3.659,0,0,0,7.12-3.894a3.9,3.9,0,0,0,2.808,1.13A3.911,3.911,0,0,0,12.748-3.894Zm4.835-7.378V-13.4a.867.867,0,0,0-.258-.626.85.85,0,0,0-.633-.265H14.446a.85.85,0,0,0-.633.265.867.867,0,0,0-.258.626v2.13a.86.86,0,0,0,.258.633.86.86,0,0,0,.633.258h2.246a.86.86,0,0,0,.633-.258A.86.86,0,0,0,17.583-11.272Zm2.246-2.685V.786A2.448,2.448,0,0,1,19.08,2.58a2.448,2.448,0,0,1-1.794.749H2.543A2.448,2.448,0,0,1,.749,2.58,2.448,2.448,0,0,1,0,.786V-13.957a2.448,2.448,0,0,1,.749-1.794A2.448,2.448,0,0,1,2.543-16.5H17.286a2.448,2.448,0,0,1,1.794.749A2.448,2.448,0,0,1,19.829-13.957Z" transform="translate(0 16.5)" fill="#32393f"/>
</svg>
