<svg xmlns="http://www.w3.org/2000/svg" width="34.528" height="33" viewBox="0 0 34.528 33">
  <path id="Path_1875" data-name="Path 1875" d="M7.845-5.543V16.734H.427V-5.543Zm.472-6.879A3.559,3.559,0,0,1,7.182-9.679a4.236,4.236,0,0,1-3.046,1.1H4.091a4.057,4.057,0,0,1-2.967-1.1A3.684,3.684,0,0,1,0-12.422a3.621,3.621,0,0,1,1.158-2.754,4.231,4.231,0,0,1,3.023-1.09,4.111,4.111,0,0,1,2.99,1.09A3.749,3.749,0,0,1,8.317-12.422ZM34.529,3.966V16.734h-7.4V4.82a6.5,6.5,0,0,0-.91-3.7A3.2,3.2,0,0,0,23.379-.215,3.641,3.641,0,0,0,21.007.56,4.781,4.781,0,0,0,19.58,2.482,5.435,5.435,0,0,0,19.332,4.3V16.734h-7.4q.045-8.969.045-14.544t-.022-6.654l-.022-1.079h7.4v3.237h-.045a9.784,9.784,0,0,1,.922-1.259,9.584,9.584,0,0,1,1.27-1.169,5.84,5.84,0,0,1,1.956-.978,8.911,8.911,0,0,1,2.574-.348,7.984,7.984,0,0,1,6.182,2.551Q34.529-.957,34.529,3.966Z" transform="translate(0 16.266)" fill="#636b74"/>
</svg>
