<svg id="Group_2911" data-name="Group 2911" xmlns="http://www.w3.org/2000/svg" width="15.757" height="27.806" viewBox="0 0 15.757 27.806">
  <path id="Path_1981" data-name="Path 1981" d="M13.729,0H2.028A2.053,2.053,0,0,0,0,2.028V25.779a2.053,2.053,0,0,0,2.028,2.028h11.7a2.053,2.053,0,0,0,2.028-2.028V2.028A2.053,2.053,0,0,0,13.729,0ZM.927,3.708h13.9V21.318H.927V3.708ZM2.028.927h11.7a1.1,1.1,0,0,1,1.1,1.1v.753H.927V2.028a1.139,1.139,0,0,1,1.1-1.1Zm11.7,25.953H2.028a1.1,1.1,0,0,1-1.1-1.1V22.245h13.9v3.534a1.139,1.139,0,0,1-1.1,1.1Zm0,0" fill="#636b74"/>
  <path id="Path_1982" data-name="Path 1982" d="M12.254,39.2a1.854,1.854,0,1,0,1.854,1.854A1.83,1.83,0,0,0,12.254,39.2Zm0,2.781a.927.927,0,1,1,.927-.927.915.915,0,0,1-.927.927Zm0,0" transform="translate(-4.375 -16.491)" fill="#636b74"/>
  <path id="Path_1983" data-name="Path 1983" d="M10.063,3.327h1.854a.5.5,0,0,0,.463-.463.5.5,0,0,0-.463-.463H10.063a.5.5,0,0,0-.463.463.5.5,0,0,0,.463.463Zm0,0" transform="translate(-4.039 -1.01)" fill="#636b74"/>
  <g id="Group_2910" data-name="Group 2910" transform="translate(8.805 1.39)">
    <path id="Path_1984" data-name="Path 1984" d="M15.663,3.327h.463a.5.5,0,0,0,.463-.463.5.5,0,0,0-.463-.463h-.463a.5.5,0,0,0-.463.463.5.5,0,0,0,.463.463Zm0,0" transform="translate(-15.2 -2.4)" fill="#636b74"/>
  </g>
</svg>
