<svg xmlns="http://www.w3.org/2000/svg" width="10.577" height="15.652" viewBox="0 0 10.577 15.652">
  <g id="Group_2713" data-name="Group 2713" transform="translate(0 0)">
    <path id="Path_1876" data-name="Path 1876" d="M4.231,15.089a.563.563,0,0,1-.563.563H.563A.558.558,0,0,1,0,15.089V.563A.563.563,0,0,1,.563,0h3.1a.563.563,0,0,1,.563.563V15.089Zm0,0" fill="#b8c5d3"/>
    <path id="Path_1877" data-name="Path 1877" d="M178.027,15.089a.563.563,0,0,1-.563.563h-3.1a.563.563,0,0,1-.563-.563V.563A.563.563,0,0,1,174.363,0h3.1a.563.563,0,0,1,.563.563Zm0,0" transform="translate(-167.45)" fill="#b8c5d3"/>
  </g>
</svg>
