<svg xmlns="http://www.w3.org/2000/svg" width="21.982" height="17.434" viewBox="0 0 21.982 17.434">
  <g id="Group_2749" data-name="Group 2749" transform="translate(0)">
    <path id="Path_1891" data-name="Path 1891" d="M21.6,0H.379A.408.408,0,0,0,0,.379V17.055a.408.408,0,0,0,.379.379H21.6a.408.408,0,0,0,.379-.379V.379A.408.408,0,0,0,21.6,0Zm-.379,16.676H.758V.758H21.224Zm0,0" fill="#6e767f"/>
    <path id="Path_1892" data-name="Path 1892" d="M10.432,12.964A2.132,2.132,0,1,0,8.3,10.832a2.123,2.123,0,0,0,2.132,2.132Zm0-3.458a1.374,1.374,0,1,1-1.374,1.374,1.375,1.375,0,0,1,1.374-1.374Zm0,0" transform="translate(-4.368 -4.578)" fill="#6e767f"/>
    <path id="Path_1893" data-name="Path 1893" d="M5.084,22.422a.362.362,0,0,0,.237-.095l6.206-5.448,3.885,3.885a.368.368,0,0,0,.521-.521l-1.8-1.8,3.458-3.79,4.264,3.932a.372.372,0,0,0,.521,0,.338.338,0,0,0-.047-.521L17.78,13.895A.673.673,0,0,0,17.5,13.8a.409.409,0,0,0-.284.142l-3.7,4.074-1.8-1.8a.372.372,0,0,0-.521,0L4.752,21.9a.375.375,0,0,0-.047.521.985.985,0,0,1,.379,0Zm0,0" transform="translate(-2.431 -7.262)" fill="#6e767f"/>
  </g>
</svg>
