<svg id="Group_2860" data-name="Group 2860" xmlns="http://www.w3.org/2000/svg" width="81" height="81" viewBox="0 0 81 81">
  <path id="Path_1979" data-name="Path 1979" d="M40.5,0A40.5,40.5,0,1,0,81,40.5,40.469,40.469,0,0,0,40.5,0Zm0,77.885A37.385,37.385,0,1,1,77.885,40.5,37.394,37.394,0,0,1,40.5,77.885Zm0,0" fill="#748aa1"/>
  <path id="Path_1980" data-name="Path 1980" d="M50.5,29.092H32.587V11.958a1.558,1.558,0,1,0-3.115,0V29.092H11.558a1.558,1.558,0,1,0,0,3.115H29.471V50.9a1.558,1.558,0,0,0,3.115,0V32.208H50.5a1.558,1.558,0,0,0,0-3.115Zm0,0" transform="translate(9.471 9.85)" fill="#748aa1"/>
</svg>
