<svg xmlns="http://www.w3.org/2000/svg" width="22.585" height="23.508" viewBox="0 0 22.585 23.508">
  <g id="Settings" transform="translate(-1569.288 -677.002)">
    <path id="Fill_525" data-name="Fill 525" d="M1580.583,700.51a11.471,11.471,0,0,1-2.7-.319.975.975,0,0,1-.744-.951v-1.782a9.461,9.461,0,0,1-2.368-1.378l-1.552.893a.975.975,0,0,1-1.2-.178,11.669,11.669,0,0,1-1.566-2.093.664.664,0,0,1-.068-.12l-.142-.24a11.761,11.761,0,0,1-.915-2.222.977.977,0,0,1,.455-1.123l1.546-.892a9.86,9.86,0,0,1-.1-1.348,9.234,9.234,0,0,1,.107-1.4l-1.546-.9a.983.983,0,0,1-.445-1.13,11.778,11.778,0,0,1,2.721-4.657.974.974,0,0,1,1.2-.171l1.552.9a9.21,9.21,0,0,1,2.319-1.343v-1.781a.977.977,0,0,1,.744-.951,11.615,11.615,0,0,1,5.4,0,.977.977,0,0,1,.749.951v1.782a9.386,9.386,0,0,1,2.363,1.378l1.552-.893a.981.981,0,0,1,1.2.179,11.721,11.721,0,0,1,1.566,2.1c.03.048.059.095.083.14a11.248,11.248,0,0,1,1.038,2.436.978.978,0,0,1-.451,1.125l-1.551.891a8.852,8.852,0,0,1-.01,2.751l1.546.9a.973.973,0,0,1,.446,1.128,11.047,11.047,0,0,1-.974,2.286c-.073.129-.141.251-.215.37a11.764,11.764,0,0,1-1.527,2,.978.978,0,0,1-1.2.171l-1.546-.9a9.29,9.29,0,0,1-2.32,1.343v1.781a.975.975,0,0,1-.749.951A11.4,11.4,0,0,1,1580.583,700.51Zm-5.7-6.605a.985.985,0,0,1,.668.263,7.377,7.377,0,0,0,2.848,1.661.988.988,0,0,1,.695.936v1.671a9.7,9.7,0,0,0,2.975,0v-1.671a.973.973,0,0,1,.69-.936,7.333,7.333,0,0,0,2.819-1.631.968.968,0,0,1,.661-.259.98.98,0,0,1,.494.134l1.448.847a9.228,9.228,0,0,0,.769-1.087c.046-.082.116-.2.191-.328a9.652,9.652,0,0,0,.548-1.157l-1.453-.848a.989.989,0,0,1-.46-1.067,7.434,7.434,0,0,0,.2-1.678,7.274,7.274,0,0,0-.191-1.635.978.978,0,0,1,.47-1.065l1.453-.837a9.068,9.068,0,0,0-.607-1.279s-.009-.015-.015-.027-.012-.023-.015-.027c-.012-.019-.03-.049-.039-.066a9.591,9.591,0,0,0-.813-1.182l-1.453.837a.978.978,0,0,1-1.155-.132,7.456,7.456,0,0,0-2.853-1.662.975.975,0,0,1-.69-.936v-1.671a9.758,9.758,0,0,0-2.975,0v1.671a.977.977,0,0,1-.695.936,7.283,7.283,0,0,0-2.813,1.631.984.984,0,0,1-1.16.125l-1.448-.847a10.123,10.123,0,0,0-.764,1.087,9.126,9.126,0,0,0-.739,1.486l1.449.847a.972.972,0,0,1,.46,1.067,7.413,7.413,0,0,0-.2,1.678,7.6,7.6,0,0,0,.185,1.636.978.978,0,0,1-.464,1.065l-1.459.837a11.061,11.061,0,0,0,.514,1.114l.142.248,0,.009.007.011.009.014a10.2,10.2,0,0,0,.812,1.183l1.459-.837A.976.976,0,0,1,1574.884,693.905Z" fill="#545f69"/>
    <path id="Fill_526" data-name="Fill 526" d="M1580.583,692.654a3.9,3.9,0,1,1,3.9-3.9A3.9,3.9,0,0,1,1580.583,692.654Zm0-6.323a2.43,2.43,0,1,0,2.43,2.43A2.433,2.433,0,0,0,1580.58,686.33Z" fill="#545f69"/>
  </g>
</svg>
