<svg xmlns="http://www.w3.org/2000/svg" width="21.555" height="16.935" viewBox="0 0 21.555 16.935">
  <g id="Group_2916" data-name="Group 2916" transform="translate(-216 -307)">
    <path id="Path_1887" data-name="Path 1887" d="M.776,28.247H19.262a.757.757,0,0,0,.757-.757V25.957a.757.757,0,0,0-.757-.757H.776a.74.74,0,0,0-.536.222.63.63,0,0,0-.24.517v1.533a.74.74,0,0,0,.222.536.729.729,0,0,0,.554.24Zm0,0" transform="translate(216 286.454)" fill="#555c64"/>
    <path id="Path_1888" data-name="Path 1888" d="M.776,3.084h13.87a.757.757,0,0,0,.757-.757V.776A.74.74,0,0,0,15.181.24.691.691,0,0,0,14.645,0H.776A.782.782,0,0,0,.222.222.782.782,0,0,0,0,.776V2.309a.74.74,0,0,0,.222.536.729.729,0,0,0,.554.24Zm0,0" transform="translate(216 307)" fill="#555c64"/>
    <path id="Path_1889" data-name="Path 1889" d="M21.349,75.322a.74.74,0,0,0-.536-.222H.776a.74.74,0,0,0-.536.222.729.729,0,0,0-.24.554v1.533a.74.74,0,0,0,.222.536.74.74,0,0,0,.536.222H20.8a.757.757,0,0,0,.757-.757V75.876a.7.7,0,0,0-.2-.554Zm0,0" transform="translate(216 245.769)" fill="#555c64"/>
    <path id="Path_1890" data-name="Path 1890" d="M.776,53.247h15.4a.757.757,0,0,0,.757-.757V50.957a.757.757,0,0,0-.757-.757H.776a.74.74,0,0,0-.536.222.718.718,0,0,0-.24.517v1.533a.74.74,0,0,0,.222.536.729.729,0,0,0,.554.24Zm0,0" transform="translate(216 266.071)" fill="#555c64"/>
  </g>
</svg>
