<svg xmlns="http://www.w3.org/2000/svg" width="13.477" height="10.945" viewBox="0 0 13.477 10.945">
  <path id="Path_40" data-name="Path 40" d="M13.992-13.7a5.788,5.788,0,0,1-1.385,1.428q.009.12.009.359a7.846,7.846,0,0,1-.325,2.219A8.019,8.019,0,0,1,11.3-7.569a8.353,8.353,0,0,1-1.578,1.8A7.024,7.024,0,0,1,7.519-4.521a8.074,8.074,0,0,1-2.762.466A7.67,7.67,0,0,1,.516-5.295a5.911,5.911,0,0,0,.667.034A5.408,5.408,0,0,0,4.612-6.44,2.693,2.693,0,0,1,3-6.992a2.7,2.7,0,0,1-.975-1.364,3.5,3.5,0,0,0,.522.043,2.857,2.857,0,0,0,.727-.094,2.717,2.717,0,0,1-1.586-.953,2.668,2.668,0,0,1-.629-1.757v-.034a2.74,2.74,0,0,0,1.248.351,2.759,2.759,0,0,1-.9-.983A2.691,2.691,0,0,1,1.08-13.1,2.706,2.706,0,0,1,1.456-14.5a7.83,7.83,0,0,0,2.518,2.039,7.7,7.7,0,0,0,3.177.851,3.068,3.068,0,0,1-.068-.633,2.662,2.662,0,0,1,.808-1.954A2.662,2.662,0,0,1,9.845-15a2.663,2.663,0,0,1,2.018.872,5.416,5.416,0,0,0,1.753-.667A2.682,2.682,0,0,1,12.4-13.273,5.5,5.5,0,0,0,13.992-13.7Z" transform="translate(-0.516 15)" fill="#b8c5d3"/>
</svg>
